<svg width="340" height="220" viewBox="0 0 340 220" fill="none" xmlns="http://www.w3.org/2000/svg">
<g clip-path="url(#clip0_20602_499963)">
<g clip-path="url(#clip1_20602_499963)">
<path d="M-8.4985 153.727C-8.28021 153.955 -8.06982 154.199 -7.79987 154.315C-7.25906 154.546 -6.57117 154.438 -6.0043 154.576C-3.5748 155.167 -0.921875 156.944 1.21255 158.194C2.84293 159.148 4.28247 160.58 6.35361 160.108C9.0405 159.495 10.9729 156.863 13.3312 155.52C17.1612 153.34 20.4438 156.368 24.2477 157.447C24.843 157.616 25.4299 157.582 26.0261 157.704C26.4333 157.788 26.1382 158.261 26.8112 158.261C27.0323 158.261 28.4486 157.68 28.7176 157.587C30.5523 156.955 32.3447 156.249 34.1752 155.613C38.0298 154.272 42.0008 152.51 45.3807 150.207C47.4113 148.823 49.7296 147.579 51.9287 146.447C53.2165 145.785 54.6277 145.282 55.9462 144.67C57.2727 144.054 58.1649 142.922 59.4439 142.272C62.5859 140.676 65.8885 139.342 68.9119 137.519C71.1935 136.145 73.5834 134.956 75.9715 133.76C77.2546 133.117 78.0798 132.1 79.2699 131.391C80.5903 130.605 82.177 130.221 83.5113 129.367C85.1273 128.333 86.712 127.198 88.2847 126.243C91.6078 124.227 95.266 125.17 98.8488 125.591C101.293 125.879 103.982 127.316 106.189 128.358C107.867 129.151 109.584 129.659 111.194 130.63C112.664 131.516 114.056 132.371 115.674 132.994C118.537 134.097 121.231 135.901 124.173 136.751C125.998 137.278 127.787 137.759 129.584 138.199C132.093 138.813 134.704 140.397 137.089 141.418C139.81 142.583 142.65 143.626 145.238 145.024C148.052 146.544 151.067 147.65 154.039 148.832C156.563 149.835 159.162 151.574 161.861 152.003C163.806 152.313 165.7 152.195 167.587 152.837C169.822 153.598 171.944 154.726 174.084 155.706C176.455 156.79 179.058 157.162 181.465 158.214C183.168 158.958 185.021 159.347 186.749 160.061C188.063 160.604 189.138 161.395 190.409 161.988C193.216 163.296 196.375 163.766 199.34 164.601C201.889 165.319 204.338 165.966 206.918 166.495C210.832 167.297 215.137 167.044 218.908 165.868C221.463 165.072 223.539 163.889 225.933 162.753C228.055 161.747 229.923 159.547 232.355 159.434C235.296 159.297 237.984 159.379 240.679 160.527C242.988 161.512 244.059 162.356 246.409 161.326C253.094 158.394 254.462 156.425 261.137 160.232C262.262 160.874 263.509 161.784 264.667 162.296C266.054 162.91 266.957 162.104 268.212 161.483C270.943 160.134 273.331 158.627 275.894 157.081C280.498 154.304 285.782 152.264 290.624 149.895C295.967 147.281 301.289 144.674 306.632 142.06C308.021 141.38 309.771 140.819 310.986 139.87C311.933 139.131 311.797 138.906 313.02 138.758C315.987 138.398 319.073 140.505 321.824 141.436C323.813 142.108 325.885 142.833 327.765 143.767C329.913 144.833 332.088 145.547 334.323 146.447C336.394 147.281 338.494 147.95 340.566 148.733V236.407C331.613 236.826 322.67 237.169 313.694 237.154C299.343 237.13 285.016 237.078 270.676 236.388C255.308 235.648 239.907 234.46 224.558 233.382C209.301 232.311 194.02 231.025 178.736 230.403C161.784 229.715 144.901 228.054 127.942 227.543C107.658 226.931 87.3338 226.706 67.0396 226.502C49.9227 226.331 33.073 225.025 16.0181 223.685C7.83783 223.043 -0.335907 222.293 -8.50034 221.457V153.727H-8.4985Z" fill="#FECFC1"/>
<path d="M347.565 164.632C346.067 163.85 344.496 163.144 342.987 162.407C341.508 161.685 339.477 161.309 337.868 161.007C335.539 160.569 333.204 160.26 330.863 159.885C326.597 159.201 323.442 156.009 319.525 154.534C317.355 153.717 315.259 152.619 313.227 151.796C312.843 152.387 312.365 152.012 311.804 152.12C311.481 152.182 311.234 152.444 310.912 152.562C309.177 153.196 307.197 153.628 305.404 154.127C303.525 154.649 301.72 155.416 299.863 156.006C297.751 156.677 295.966 157.825 293.91 158.489C292.535 158.934 291.304 159.959 289.931 160.506C289.023 160.868 288.136 161.297 287.272 161.749C285.519 162.669 283.829 163.555 281.97 164.256C279.607 165.146 276.89 165.977 274.287 165.54C272.798 165.29 271.336 164.138 269.984 163.513C268.592 162.87 267.118 162.346 265.75 161.655C264.445 160.996 263.262 160.165 261.884 159.662C260.598 159.193 260.072 159.282 258.812 159.662C257.269 160.127 255.704 160.645 254.222 161.319C253.088 161.836 251.917 162.075 250.785 162.561C249.911 162.937 249.163 163.479 248.235 163.745C244.104 164.926 240.334 167.009 236.132 168.024C234.819 168.341 233.702 168.684 232.429 168.127C231.32 167.643 230.415 166.975 229.417 166.32C226.95 164.702 224.446 163.148 221.671 162.061C217.78 160.538 213.961 158.773 209.91 157.674C206.684 156.799 203.597 154.878 200.614 153.405C197.148 151.695 194.221 149.075 190.926 147.119C189.462 146.25 187.88 145.305 186.323 144.61C184.68 143.877 183.244 142.957 181.665 142.117C179.415 140.921 176.987 139.82 174.67 138.753C172.805 137.893 170.68 137.353 168.929 136.279C167.343 135.304 165.763 134.655 164.021 133.973C162.038 133.195 159.785 132.653 157.905 131.675C155.555 130.451 153.531 129.951 150.894 130.004C149.916 130.024 148.834 130.178 147.904 130.501C147.272 130.721 146.761 131.06 146.103 131.256C145.329 131.485 144.781 131.648 144.042 132C141.06 133.416 137.92 134.496 134.931 135.922C132.999 136.843 131.163 137.933 129.312 138.983C127.737 139.875 125.961 140.354 124.407 141.281C121.537 142.993 118.721 144.649 115.664 146.097C112.696 147.502 109.712 148.877 106.725 150.262C101.7 152.59 97.0364 155.303 92.0671 157.687C90.0272 158.665 88.1948 160.251 86.1027 161.014C84.8335 161.478 82.7754 161.531 81.3024 161.34C79.6324 161.125 77.7977 160.342 76.1897 159.557C75.3505 159.147 74.4262 158.794 73.6285 158.314C72.9061 157.879 72.3788 157.273 71.494 157.133C69.5341 156.824 67.3834 157.601 65.6125 158.303C63.318 159.214 61.2403 160.504 59.1599 161.713C57.6338 162.601 56.1593 163.304 54.5136 163.942C53.5148 164.329 52.7473 164.977 51.7625 165.392C49.9436 166.157 48.1969 167.247 46.3082 167.921C44.3222 168.63 42.3349 169.196 40.3098 169.787C39.5037 170.023 38.6636 170.294 37.7723 170.123C36.861 169.947 36.4752 169.207 35.6463 168.933C35.0575 168.738 34.5139 168.968 33.9289 168.871C33.4532 168.792 33.1242 168.484 32.648 168.409C32.1961 168.337 31.8317 168.454 31.3672 168.339C30.8604 168.213 30.6388 168.03 30.0864 168.005C29.0969 167.958 28.4858 167.765 27.547 167.573C26.9973 167.461 26.3914 167.61 25.8161 167.504C25.2981 167.407 24.8885 167.186 24.3286 167.162C18.6011 166.925 13.4889 165.244 8.43397 162.606C7.55619 162.147 6.90925 161.385 6.07475 160.891C5.53579 160.573 4.92981 160.399 4.37875 160.099C3.08627 159.396 1.98788 158.392 0.726581 157.666C-0.000874519 157.247 -0.746481 156.849 -1.5 156.462V213.991C4.40202 213.825 10.4381 214.288 16.3052 214.755C24.1047 215.376 31.8024 216.495 39.6317 216.803C45.2358 217.024 50.8102 217.1 56.4027 217.537C61.1747 217.91 65.9341 218.392 70.7121 218.679C81.3782 219.318 92.0648 220.063 102.744 220.427C115.224 220.852 127.74 220.896 140.229 221.007C155.56 221.144 170.901 221.36 186.211 222.258C198.8 222.996 211.337 224.332 223.845 225.885C235.066 227.278 246.258 228.686 257.59 228.697C270.193 228.709 282.718 227.874 295.239 226.477C309.405 224.897 323.469 222.382 337.514 219.993C340.865 219.423 344.217 218.832 347.567 218.217V164.632H347.565Z" fill="#F7B4A8"/>
<g opacity="0.5">
<path d="M258.256 163.185C259.623 162.016 260.984 160.88 262.698 160.279C262.766 160.255 262.839 160.232 262.91 160.21C262.645 160.085 262.376 159.968 262.098 159.866C260.812 159.397 260.286 159.486 259.025 159.866C257.483 160.331 255.918 160.849 254.436 161.523C253.302 162.04 252.131 162.279 250.999 162.765C250.125 163.141 249.377 163.683 248.449 163.949C244.318 165.13 240.548 167.213 236.345 168.228C235.844 168.349 235.371 168.473 234.906 168.55C235.736 169.384 236.137 169.771 237.66 169.909C240.631 170.18 243.371 168.849 246.109 167.895C246.642 167.709 247.408 167.376 247.985 167.341C248.715 167.297 249.454 167.77 250.19 167.821C251.559 167.913 252.484 167.298 253.56 166.546C254.521 165.875 255.574 165.385 256.567 164.762C257.32 164.29 257.583 163.76 258.256 163.185Z" fill="#CC5B4C"/>
<path d="M302.203 160.783C303.217 160.329 304.552 160.446 305.629 160.199C309.027 159.42 310.566 157.442 312.564 154.968C313.255 154.113 314.005 153.324 314.824 152.593C314.359 152.386 313.898 152.185 313.44 152C313.056 152.591 312.578 152.216 312.017 152.323C311.694 152.385 311.447 152.648 311.126 152.766C309.391 153.4 307.41 153.832 305.617 154.331C303.738 154.853 301.934 155.62 300.076 156.21C297.964 156.881 296.18 158.028 294.123 158.693C292.748 159.138 291.517 160.163 290.144 160.71C289.236 161.072 288.349 161.501 287.485 161.954C285.732 162.873 284.042 163.759 282.183 164.46C279.896 165.322 277.277 166.124 274.752 165.779C275.099 165.878 275.44 166.001 275.768 166.225C276.335 166.613 276.647 167.409 277.104 167.82C278.198 168.802 281.463 167.828 282.684 167.425C285.542 166.483 288.212 164.762 291.095 164.054C294.053 163.327 297.122 163.157 300.003 162.057C300.852 161.733 301.42 161.135 302.203 160.783Z" fill="#CC5B4C"/>
</g>
<path d="M315.622 184.805C314.432 184.284 313.184 183.815 311.985 183.325C310.81 182.845 309.196 182.595 307.918 182.394C306.067 182.103 304.211 181.897 302.352 181.648C298.963 181.194 296.456 179.071 293.343 178.091C291.619 177.548 289.954 176.817 288.34 176.271C288.035 176.664 287.655 176.414 287.209 176.485C286.953 176.526 286.756 176.701 286.501 176.78C285.122 177.201 283.549 177.489 282.124 177.82C280.631 178.168 279.198 178.677 277.722 179.07C276.044 179.515 274.626 180.279 272.992 180.72C271.9 181.016 270.921 181.698 269.831 182.062C269.109 182.302 268.405 182.587 267.719 182.888C266.325 183.5 264.983 184.088 263.506 184.555C261.628 185.147 259.469 185.699 257.402 185.408C256.219 185.242 255.057 184.477 253.983 184.061C252.877 183.633 251.706 183.285 250.619 182.825C249.582 182.387 248.643 181.835 247.548 181.501C246.526 181.189 246.108 181.248 245.106 181.501C243.881 181.81 242.637 182.154 241.46 182.603C240.559 182.946 239.629 183.105 238.73 183.428C238.035 183.678 237.441 184.039 236.704 184.215C233.422 185 230.426 186.385 227.088 187.06C226.045 187.271 225.157 187.498 224.146 187.129C223.265 186.807 222.546 186.363 221.753 185.928C219.793 184.851 217.803 183.818 215.599 183.096C212.508 182.084 209.473 180.91 206.255 180.179C203.692 179.597 201.239 178.32 198.869 177.342C196.115 176.204 193.79 174.463 191.171 173.162C190.009 172.585 188.752 171.956 187.514 171.495C186.208 171.007 185.067 170.395 183.813 169.837C182.026 169.042 180.097 168.31 178.256 167.6C176.774 167.029 175.086 166.67 173.695 165.955C172.434 165.308 171.179 164.876 169.796 164.422C168.22 163.906 166.429 163.545 164.936 162.895C163.069 162.081 161.46 161.748 159.365 161.784C158.589 161.797 157.729 161.899 156.99 162.114C156.488 162.261 156.082 162.486 155.559 162.616C154.944 162.768 154.509 162.877 153.921 163.11C151.552 164.052 149.058 164.77 146.683 165.718C145.148 166.331 143.689 167.056 142.218 167.753C140.968 168.346 139.556 168.664 138.321 169.281C136.041 170.419 133.804 171.521 131.375 172.483C129.018 173.417 126.646 174.331 124.273 175.252C120.282 176.8 116.576 178.604 112.628 180.188C111.007 180.839 109.551 181.893 107.889 182.401C106.881 182.709 105.246 182.744 104.075 182.618C102.749 182.474 101.291 181.954 100.013 181.432C99.3459 181.159 98.612 180.925 97.9781 180.606C97.4042 180.316 96.9853 179.914 96.2821 179.821C94.7248 179.615 93.0162 180.132 91.6092 180.599C89.7861 181.204 88.1353 182.062 86.4826 182.866C85.2702 183.456 84.0987 183.923 82.7909 184.347C81.9973 184.605 81.3876 185.036 80.6048 185.311C79.1596 185.82 77.7718 186.545 76.2712 186.993C74.6935 187.464 73.1142 187.841 71.5053 188.234C70.8649 188.39 70.1975 188.571 69.4891 188.457C68.7654 188.34 68.4586 187.849 67.8001 187.666C67.3323 187.536 66.9004 187.69 66.4355 187.625C66.0575 187.573 65.7964 187.368 65.418 187.318C65.0592 187.27 64.7697 187.348 64.4007 187.271C63.9981 187.187 63.8216 187.066 63.3832 187.049C62.5971 187.018 62.1117 186.889 61.3656 186.762C60.9286 186.688 60.4473 186.787 59.9903 186.716C59.5788 186.652 59.2531 186.505 58.8086 186.489C54.2581 186.332 50.1964 185.214 46.1803 183.46C45.4826 183.155 44.9688 182.648 44.306 182.32C43.8778 182.108 43.3966 181.993 42.9582 181.793C41.9314 181.326 41.0587 180.658 40.0567 180.176C39.4786 179.897 38.8862 179.633 38.2876 179.376V217.623C42.9767 217.513 47.7725 217.821 52.4341 218.131C58.6308 218.544 64.7469 219.288 70.9673 219.493C75.42 219.64 79.8489 219.69 84.2918 219.98C88.0832 220.228 91.8643 220.549 95.6607 220.739C104.135 221.164 112.625 221.66 121.11 221.902C131.026 222.184 140.97 222.214 150.892 222.287C163.072 222.378 175.262 222.521 187.425 223.119C197.427 223.609 207.387 224.498 217.326 225.53C226.241 226.457 235.133 227.392 244.136 227.399C254.149 227.408 264.1 226.852 274.049 225.923C285.304 224.873 296.477 223.201 307.636 221.612C310.298 221.234 312.962 220.841 315.623 220.432V184.805H315.622Z" fill="#EA8979"/>
<path d="M-8.28513 171.533C-6.94052 170.881 -5.59171 170.239 -4.22571 169.633C-1.17673 168.278 1.50925 167.079 4.84119 166.508C7.41171 166.068 9.76956 165.03 12.2996 164.409C13.6516 164.077 15.0256 163.749 16.3399 163.458C17.9545 163.101 19.5309 164.338 20.9336 164.955C22.8745 165.81 24.7152 166.91 26.67 167.749C28.4484 168.514 29.8493 169.547 31.542 170.435C32.8596 171.126 34.1777 171.635 35.4339 172.45C38.0989 174.178 41.1688 175.301 43.9581 176.812C50.0691 180.123 56.1377 183.545 62.2994 186.783C65.2316 188.323 68.0763 190.04 71.0773 191.459C73.928 192.806 77.0831 194.002 79.7682 195.633C82.6189 197.364 85.4654 198.914 88.593 200.133C91.0975 201.109 93.5931 202.341 96.1766 203.067C100.082 204.164 104.212 206.542 108.346 205.15C109.949 204.61 111.755 204.366 113.272 203.637C114.533 203.03 115.79 202.472 117.074 201.907C119.828 200.697 122.782 200.153 125.625 199.193C127.628 198.516 129.857 197.935 131.666 196.79C132.463 196.287 132.744 195.629 133.62 195.214C134.405 194.842 135.287 194.427 136.094 194.116C138.08 193.351 139.91 192.292 141.899 191.519C143.602 190.858 145.367 190.43 147.085 189.794C148.512 189.265 149.962 188.64 151.424 188.213C152.471 187.908 153.566 188.027 154.663 188.019C157.387 188.002 159.985 189.24 162.555 190.092C164.589 190.765 166.596 191.738 168.54 192.626C169.679 193.147 170.905 193.468 172.06 193.95C173.213 194.432 174.18 195.241 175.306 195.763C180.147 198.005 185.062 199.914 190.009 201.918C191.145 202.378 192.184 202.965 193.281 203.483C194.189 203.911 195.222 204.054 196.162 204.401C197.592 204.929 199.002 205.573 200.434 205.99C201.734 206.368 203.041 206.546 204.193 205.991C205.126 205.542 205.936 204.972 206.992 204.676C209.95 203.848 212.649 202.442 215.569 201.5C217.287 200.947 219.014 200.571 220.713 200.05C222.003 199.654 223.307 198.856 224.576 198.358C226.971 197.42 229.674 196.424 231.715 194.871C232.997 193.895 234.077 193.27 235.573 192.615C236.067 192.398 236.536 192.012 237.051 191.862C237.564 191.712 238.037 191.861 238.545 191.796C238.937 191.746 239.256 191.503 239.614 191.442C239.965 191.382 240.149 191.609 240.445 191.583C241.187 191.517 241.861 191.351 242.617 191.356C243.844 191.364 244.868 191.409 246.016 191.046C247.278 190.647 248.503 190.248 249.753 189.794C251.275 189.24 252.374 188.342 253.818 187.695C255.452 186.962 257.033 186.128 258.49 185.084C259.314 184.495 260.184 184.326 261.062 183.865C261.837 183.459 262.465 182.918 263.288 182.585C267.272 180.971 271.342 179.329 275.482 178.098C277.502 177.498 279.483 176.779 281.445 176.01C283.092 175.364 284.779 174.371 286.474 173.9C288.087 173.453 289.67 173.367 291.264 172.877C292.334 172.549 293.367 171.858 294.467 171.714C295.592 171.567 296.827 172.073 297.882 172.35C298.987 172.641 299.972 173.191 301.074 173.503C304.189 174.385 307.511 175.27 310.572 176.405C312.86 177.253 315.109 178.174 317.305 179.247C318.298 179.732 319.274 180.263 320.278 180.725C321.39 181.236 322.574 181.301 323.709 181.732C325.199 182.297 326.605 183.071 328.091 183.633C329.498 184.165 330.927 184.402 332.266 185.095C334.7 186.354 337.336 187.116 339.753 188.422C340.097 188.607 340.439 188.795 340.781 188.982V268.01C337.136 268.155 333.486 268.207 329.836 268.163C311.661 267.945 293.656 265.222 275.491 264.996C265.462 264.871 255.465 266.409 245.505 267.291C236.865 268.056 228.199 268.539 219.579 269.502C207.21 270.884 194.656 272.582 182.192 272.806C170.543 273.017 158.964 272.304 147.358 271.372C136.43 270.493 125.501 269.688 114.592 268.595C99.8944 267.123 85.2224 265.227 70.5505 263.53C57.0677 261.971 43.5886 260.246 30.203 258.016C17.3569 255.876 4.57822 253.378 -8.28604 251.333V171.533H-8.28513Z" fill="#F08C7E"/>
<path d="M17.9617 169.156C16.4044 167.491 14.9327 165.79 13.3289 164.168C14.343 163.923 15.3581 163.683 16.3397 163.466C17.9542 163.109 19.5306 164.346 20.9334 164.963C22.8742 165.818 24.715 166.917 26.6697 167.757C28.4481 168.521 29.849 169.555 31.5418 170.443C32.8594 171.134 34.1775 171.642 35.4336 172.458C38.0986 174.186 41.1686 175.308 43.9578 176.82C50.0688 180.13 56.1375 183.553 62.2992 186.79C65.2314 188.331 68.076 190.048 71.0771 191.467C73.9278 192.814 77.0829 194.01 79.7679 195.64C82.6186 197.372 85.4651 198.922 88.5928 200.141C91.0972 201.117 93.5928 202.349 96.1764 203.075C98.2456 203.656 100.378 204.593 102.541 205.142C102.361 205.2 102.155 205.459 102.061 205.478C101.257 205.646 100.397 205.402 99.5958 205.551C98.8088 205.698 98.167 206.28 97.4912 206.67C96.0121 207.522 95.1296 206.873 93.6486 206.218C90.8003 204.959 88.3531 202.974 85.6243 201.711C80.4502 199.315 73.8491 200.001 69.9936 195.098C65.9905 190.007 59.058 190.963 53.6014 188.883C51.5847 188.113 50.3108 186.693 48.6018 185.438C46.4316 183.845 44.4219 182.012 42.1501 180.556C39.5149 178.868 36.6256 177.862 33.6357 176.958C29.9347 175.84 26.5562 174.167 23.0157 172.654C20.9506 171.772 19.485 170.785 17.9617 169.156Z" fill="#E07263"/>
<path d="M217.946 203.065C217.38 203.065 216.782 203.016 216.22 203.055C215.748 203.088 215.532 203.306 215.186 203.388C214.407 203.573 213.828 203.394 213.142 202.969C212.956 202.854 212.772 202.734 212.587 202.615C213.567 202.22 214.554 201.836 215.568 201.509C217.286 200.956 219.013 200.58 220.712 200.059C222.002 199.663 223.306 198.865 224.576 198.367C226.97 197.429 229.673 196.433 231.714 194.88C232.996 193.904 234.076 193.279 235.572 192.624C236.066 192.407 236.536 192.021 237.05 191.871C237.563 191.721 238.036 191.87 238.544 191.805C238.936 191.755 239.255 191.512 239.613 191.451C239.964 191.391 240.148 191.619 240.445 191.592C241.186 191.526 241.86 191.36 242.616 191.365C243.843 191.373 244.867 191.418 246.015 191.055C246.431 190.924 246.839 190.79 247.25 190.656C247.157 191.041 247.137 191.498 246.879 191.798C246.545 192.184 246.118 192.376 245.61 192.717C244.769 193.28 244.521 193.483 243.454 193.458C242.513 193.436 241.994 193.518 241.225 193.774C239.616 194.31 238.288 194.617 237.687 196.363C237.255 197.62 237.157 198.413 236.196 199.293C235.904 199.56 235.731 199.882 235.46 200.153C234.895 200.719 234.323 200.982 233.624 201.394C232.727 201.921 232.29 202.211 231.169 202.24C230.431 202.259 229.687 202.221 228.948 202.229C227.846 202.242 226.948 202.093 225.921 201.7C224.977 201.339 224.809 201.38 224.137 202.116C222.812 203.567 222.287 203.64 220.402 203.159C219.63 202.961 218.743 203.064 217.946 203.065Z" fill="#E07263"/>
<path d="M337.805 193.47C336.139 192.289 334.137 191.36 332.245 190.433C329.294 188.986 327.018 186.625 324.24 185.013C322.783 184.167 321.462 183.694 319.771 183.412C318.876 183.263 318.188 183.4 317.305 183.027C316.403 182.646 315.532 182.001 314.753 181.368C313.524 180.368 312.348 179.181 311.02 178.308C309.693 177.436 308.113 177.204 306.611 176.764C305.923 176.562 305.196 176.098 304.498 175.801C303.797 175.501 303.112 175.385 302.459 174.976C300.881 173.989 299.472 173.825 297.668 173.398C296.357 173.089 294.827 172.797 293.758 171.891C293.992 171.817 294.227 171.756 294.467 171.726C295.592 171.578 296.827 172.084 297.882 172.361C298.987 172.652 299.972 173.202 301.074 173.514C304.189 174.397 307.511 175.281 310.572 176.416C312.86 177.265 315.109 178.186 317.305 179.258C318.298 179.743 319.274 180.275 320.278 180.736C321.39 181.247 322.574 181.312 323.709 181.743C325.199 182.308 326.605 183.082 328.091 183.644C329.498 184.176 330.927 184.413 332.266 185.106C334.7 186.365 337.336 187.128 339.753 188.433C340.097 188.618 340.439 188.807 340.781 188.993V194.801C339.723 194.538 338.709 194.11 337.805 193.47Z" fill="#E07263"/>
<path d="M176.357 200.22C174.765 200.519 173.344 201.213 171.728 200.697C170.287 200.237 169.086 199.245 167.894 198.362C166.688 197.469 165.338 196.202 164 195.558C162.971 195.062 161.856 195.163 160.814 194.721C158.881 193.9 157.199 192.482 155.514 191.272C154.257 190.369 153.162 189.171 151.991 188.094C152.863 187.953 153.76 188.029 154.66 188.023C157.385 188.005 159.982 189.244 162.553 190.095C164.586 190.768 166.594 191.741 168.537 192.629C169.677 193.15 170.903 193.472 172.057 193.954C173.211 194.435 174.177 195.244 175.304 195.766C180.145 198.009 185.059 199.917 190.006 201.921C191.142 202.381 192.181 202.968 193.279 203.486C194.187 203.914 195.219 204.057 196.16 204.404C197.59 204.932 198.999 205.577 200.432 205.993C200.927 206.137 201.423 206.252 201.912 206.308C201.839 206.432 201.752 206.544 201.636 206.629C200.212 207.668 196.12 205.859 194.758 205.256C194.409 205.102 194.14 204.828 193.757 204.798C193.468 204.775 193.426 205.106 193.101 205.171C192.109 205.371 191.033 204.966 190.089 204.729C187.688 204.127 185.438 203.266 183.176 202.339C180.759 201.348 179.122 199.699 176.357 200.22Z" fill="#E07263"/>
<path d="M340.781 201.523C339.437 201.045 338.088 200.575 336.722 200.13C333.673 199.137 330.987 198.258 327.655 197.84C325.085 197.517 322.727 196.756 320.197 196.301C318.844 196.058 317.471 195.818 316.157 195.605C314.542 195.344 312.966 196.25 311.563 196.703C309.622 197.329 307.781 198.135 305.827 198.75C304.048 199.31 302.647 200.068 300.955 200.718C299.637 201.225 298.319 201.598 297.063 202.195C294.398 203.462 291.328 204.284 288.539 205.392C282.428 207.818 276.359 210.327 270.197 212.7C267.265 213.828 264.42 215.087 261.419 216.127C258.569 217.115 255.413 217.991 252.728 219.186C249.878 220.455 247.031 221.591 243.904 222.485C241.399 223.2 238.904 224.103 236.32 224.635C232.415 225.439 228.285 227.182 224.151 226.161C222.547 225.765 220.741 225.586 219.225 225.052C217.964 224.608 216.707 224.199 215.423 223.785C212.669 222.898 209.715 222.499 206.872 221.795C204.868 221.3 202.64 220.873 200.83 220.034C200.034 219.665 199.752 219.183 198.877 218.879C198.092 218.607 197.21 218.302 196.403 218.075C194.417 217.514 192.587 216.738 190.598 216.172C188.894 215.687 187.129 215.374 185.412 214.907C183.985 214.519 182.534 214.061 181.073 213.749C180.025 213.525 178.931 213.612 177.834 213.607C175.11 213.594 172.512 214.502 169.941 215.125C167.908 215.619 165.9 216.332 163.957 216.983C162.818 217.365 161.591 217.601 160.437 217.954C159.283 218.307 158.317 218.9 157.19 219.283C152.349 220.926 147.435 222.325 142.488 223.793C141.352 224.131 140.313 224.561 139.215 224.941C138.308 225.254 137.275 225.359 136.334 225.613C134.904 226 133.495 226.473 132.063 226.778C130.763 227.055 129.455 227.185 128.303 226.778C127.371 226.449 126.56 226.031 125.504 225.815C122.547 225.207 119.848 224.177 116.928 223.487C115.21 223.081 113.482 222.806 111.785 222.424C110.494 222.133 109.19 221.549 107.921 221.184C105.527 220.496 102.823 219.766 100.782 218.628C99.5002 217.913 98.42 217.454 96.9241 216.974C96.4303 216.816 95.9607 216.533 95.4459 216.422C94.9335 216.312 94.4597 216.421 93.952 216.373C93.5601 216.336 93.2408 216.158 92.8833 216.114C92.5319 216.07 92.3481 216.237 92.0516 216.218C91.3097 216.169 90.6358 216.048 89.8809 216.051C88.6531 216.057 87.6297 216.09 86.4819 215.824C85.2197 215.532 83.9942 215.239 82.745 214.906C81.2226 214.501 80.1238 213.842 78.6796 213.368C77.0455 212.832 75.4649 212.22 74.0072 211.455C73.1834 211.023 72.3135 210.899 71.4353 210.561C70.6599 210.263 70.0325 209.868 69.2092 209.623C65.2256 208.44 61.155 207.237 57.0156 206.335C54.9951 205.894 53.0139 205.368 51.0521 204.804C49.405 204.331 47.7183 203.603 46.0232 203.258C44.411 202.93 42.8276 202.867 41.234 202.508C40.164 202.267 39.1308 201.761 38.031 201.656C36.9056 201.548 35.6703 201.918 34.6157 202.122C33.5113 202.335 32.5259 202.738 31.4238 202.967C28.3087 203.614 24.9861 204.262 21.926 205.094C19.6375 205.716 17.3881 206.391 15.1922 207.177C14.1995 207.532 13.2239 207.922 12.22 208.26C11.1072 208.634 9.92316 208.682 8.78894 208.998C7.29865 209.412 5.89264 209.98 4.40656 210.391C2.99957 210.781 1.57071 210.955 0.231689 211.463C-2.20248 212.386 -4.83859 212.945 -7.25552 213.901C-7.59903 214.037 -7.9411 214.176 -8.28366 214.313V272.234C-4.638 272.341 -0.988647 272.378 2.66119 272.346C20.8364 272.187 38.8413 270.191 57.0067 270.025C67.0352 269.934 77.0324 271.061 86.9925 271.708C95.6326 272.269 104.298 272.622 112.919 273.328C125.288 274.34 137.842 275.585 150.305 275.75C161.954 275.904 173.534 275.382 185.139 274.698C196.067 274.054 206.997 273.464 217.906 272.663C232.603 271.584 247.275 270.195 261.947 268.951C275.43 267.808 288.909 266.544 302.295 264.91C315.138 263.341 327.917 261.51 340.781 260.011V201.523Z" fill="#E47262"/>
<path d="M-8.28513 283.148V218.508C-7.08109 218.355 -5.8775 218.199 -4.67532 218.037C-1.30612 217.58 2.1301 217.769 5.51001 217.223C8.20944 216.788 11.1695 215.808 13.7303 214.797C15.6641 214.034 17.2442 212.343 19.1818 211.741C23.641 210.357 28.7881 211.929 33.2892 212.715C36.1999 213.224 38.7179 214.639 41.5919 215.252C44.6366 215.9 47.2728 217.099 50.2487 217.93C55.1836 219.308 59.8522 220.899 64.6284 222.754C66.5278 223.492 68.5803 223.867 70.4024 224.755C71.5139 225.297 72.4103 226.053 73.5892 226.528C74.5377 226.909 75.5644 227.129 76.5204 227.531C78.8275 228.5 81.5228 231.078 83.855 229.663C86.2575 228.204 88.9299 227.39 91.696 226.669C93.573 226.18 95.4715 225.625 97.3006 224.961C98.7694 224.428 100.14 223.514 101.632 223.051C102.371 222.822 102.783 222.806 103.415 222.457C103.651 222.327 103.744 221.922 103.988 221.779C104.386 221.546 105.96 221.14 106.391 221.14C107.415 221.137 109.219 222.107 110.266 222.437C111.521 222.834 112.52 222.723 113.788 222.964C115.917 223.367 117.823 223.83 119.873 224.303C121.12 224.591 122.461 225.088 123.68 225.399C124.985 225.731 126.271 226.034 127.52 226.498C130.816 227.722 134.12 228.83 137.458 229.925C139.655 230.646 142.003 231.889 144.058 232.951C145.334 233.611 146.722 233.949 147.995 234.628C151.178 236.325 154.868 237.536 157.865 239.497C160.568 241.265 164.113 242.655 167.112 244.074C169.166 245.046 171.452 246.039 173.658 246.578C177.928 247.62 182.406 245.626 185.966 243.758C187.153 243.135 187.727 242.481 189.011 242.319C190.267 242.16 191.106 242.54 192.227 242.82C194.542 243.398 196.965 243.522 199.271 244.076C201.652 244.648 203.938 244.9 206.315 245.622C207.371 245.943 208.423 246.568 209.516 246.752C210.475 246.913 211.739 246.719 212.718 246.719C215.186 246.72 217.426 246.617 219.762 245.97C221.964 245.36 223.681 243.612 225.791 242.884C230.848 241.14 236.53 243.433 241.535 244.979C246.947 246.651 252.108 249.04 257.383 251.105C263.313 253.428 269.142 255.908 274.975 258.452C279.336 260.355 283.659 262.436 288.116 264.123C291.464 265.391 295.002 267.262 298.532 267.897C301.425 268.418 304.022 269.372 306.82 270.22C307.93 270.557 309.26 271.592 310.43 271.062L319.076 283.148H-8.28513Z" fill="#D06253"/>
<path d="M272.004 214.324C271.998 214.328 271.992 214.333 271.991 214.335C271.992 214.332 272.003 214.323 272.004 214.324Z" fill="#CC5B4C"/>
<path d="M272.049 214.293C272.04 214.299 272.028 214.307 272.049 214.293V214.293Z" fill="#CC5B4C"/>
<path d="M264.217 216.148C264.213 216.151 264.207 216.155 264.207 216.157C264.208 216.154 264.217 216.148 264.217 216.148Z" fill="#CC5B4C"/>
<path d="M264.252 216.125C264.245 216.13 264.237 216.135 264.252 216.125V216.125Z" fill="#CC5B4C"/>
<path d="M165.32 218.047C165.317 218.049 165.312 218.053 165.311 218.054C165.312 218.052 165.32 218.047 165.32 218.047Z" fill="#CC5B4C"/>
<path d="M165.354 218.023C165.347 218.028 165.338 218.034 165.354 218.023V218.023Z" fill="#CC5B4C"/>
<path d="M58.4355 207.664C58.4318 207.667 58.4272 207.67 58.4264 207.672C58.4268 207.67 58.4355 207.664 58.4355 207.664Z" fill="#CC5B4C"/>
<path d="M58.4688 207.641C58.4618 207.645 58.453 207.651 58.4688 207.641V207.641Z" fill="#CC5B4C"/>
<path d="M63.5469 208.301C63.5437 208.303 63.5401 208.305 63.5396 208.307C63.5401 208.305 63.5469 208.301 63.5469 208.301Z" fill="#CC5B4C"/>
<path d="M63.5703 208.277C63.5648 208.281 63.5583 208.286 63.5703 208.277V208.277Z" fill="#CC5B4C"/>
<path d="M39.4062 202.492C39.4031 202.494 39.3994 202.497 39.399 202.498C39.399 202.496 39.4062 202.492 39.4062 202.492Z" fill="#CC5B4C"/>
<path d="M39.4316 202.469C39.4262 202.473 39.4192 202.477 39.4316 202.469V202.469Z" fill="#CC5B4C"/>
<path d="M169.832 216.473C169.829 216.475 169.825 216.477 169.825 216.479C169.825 216.477 169.832 216.473 169.832 216.473Z" fill="#CC5B4C"/>
<path d="M169.855 216.457C169.85 216.461 169.843 216.465 169.855 216.457V216.457Z" fill="#CC5B4C"/>
<path d="M-8.28513 283.148V272.821C0.135284 270.182 8.73911 268.508 17.3466 266.553C20.7866 265.772 24.1553 265.124 27.6217 264.493C30.3188 264.002 33.0876 263.307 35.5037 261.98C38.4665 260.353 40.9705 256.563 40.6796 253.161C40.3948 249.833 37.8461 247.029 37.6902 243.733C37.6009 241.841 38.8924 240.879 40.3929 239.931C40.9821 239.559 41.7552 239.247 41.9824 238.501C42.4133 237.082 40.998 235.587 40.3482 234.49C39.9149 233.758 39.6031 232.982 39.1372 232.273C37.397 229.626 34.4262 227.512 32.0512 225.44C29.4918 223.207 27.0646 220.846 24.476 218.639C22.194 216.694 20.0954 214.621 17.9275 212.554C17.8674 212.496 17.8088 212.441 17.7502 212.386C18.2119 212.122 18.6852 211.896 19.1818 211.741C23.641 210.357 28.7881 211.929 33.2892 212.715C36.1999 213.224 38.7179 214.639 41.5919 215.252C44.6366 215.9 47.2728 217.099 50.2487 217.93C55.1836 219.308 59.8522 220.899 64.6284 222.754C66.5278 223.492 68.5803 223.867 70.4024 224.755C71.5139 225.297 72.4103 226.053 73.5892 226.528C74.5377 226.909 75.5644 227.129 76.5204 227.531C76.6442 227.583 76.7699 227.641 76.896 227.702C78.295 228.932 79.7737 230.071 81.3128 231.033C84.4051 232.968 87.5569 234.781 90.6334 236.746C94.1883 239.017 97.073 242.061 100.845 243.984C103.177 245.172 105.381 246.578 107.704 247.775C110.476 249.203 113.274 250.478 115.601 252.584C118.712 255.399 121.517 258.536 124.59 261.392C126.587 263.248 128.896 264.649 131.18 266.139C135.553 268.993 139.898 271.984 144.447 274.553C146.918 275.949 148.521 274.865 151.061 274.532C151.447 274.482 153.104 274.624 152.888 273.766C152.781 273.34 151.858 273.138 151.567 272.952C151.061 272.626 150.598 272.107 150.286 271.594C149.624 270.506 148.956 269.748 148.024 268.842C146.88 267.729 145.375 266.488 144.483 265.184C144.065 264.574 143.972 263.93 143.99 263.219C144.01 262.398 143.692 262.222 143.539 261.57C143.312 260.593 143.36 259.883 142.816 258.928C142.448 258.28 142.176 257.619 141.862 256.974C140.317 253.798 136.004 252.441 133.084 250.69C131.248 249.587 129.556 248.594 128.101 247.054C126.671 245.541 125.448 243.728 123.936 242.309C123.401 241.806 122.742 241.431 122.218 240.916C121.258 239.973 120.458 238.692 119.646 237.623C118.288 235.835 116.997 234.132 115.504 232.445C113.572 230.262 111.873 227.944 109.839 225.833C108.4 224.341 106.944 222.855 105.616 221.265C105.948 221.191 106.239 221.14 106.391 221.139C107.415 221.137 109.219 222.107 110.266 222.437C111.521 222.834 112.52 222.723 113.788 222.964C115.917 223.367 117.823 223.83 119.873 224.303C121.12 224.591 122.461 225.088 123.68 225.399C124.985 225.731 126.271 226.034 127.52 226.498C130.816 227.722 134.12 228.83 137.458 229.925C139.655 230.646 142.003 231.889 144.058 232.951C145.334 233.611 146.722 233.949 147.995 234.628C151.178 236.325 154.868 237.536 157.865 239.497C160.568 241.265 164.113 242.655 167.112 244.074C169.166 245.046 171.452 246.039 173.658 246.578C173.965 246.653 174.274 246.708 174.583 246.752C175.604 247.781 176.68 248.752 177.79 249.718C180.966 252.483 184.114 255.288 187.124 258.226C188.82 259.883 190.283 261.742 191.802 263.555C192.792 264.736 196.011 267.604 197.797 266.683C198.507 266.317 198.395 265.569 198.931 265.173C199.574 264.697 199.868 265.24 200.423 265.612C202.532 267.022 204.695 268.145 206.847 269.473C208.752 270.648 210.725 271.823 212.613 272.918C213.286 273.309 213.699 273.59 214.499 273.763C215.155 273.906 215.972 273.906 216.591 274.065C217.004 274.172 217.351 274.511 217.786 274.445C218.158 273.703 216.844 272.972 216.455 272.418C216.207 272.065 215.805 271.623 215.591 271.269C215.326 270.83 215.485 270.777 215.292 270.307C214.994 269.582 214.545 268.68 214.032 268.126C213.32 267.357 212.186 266.903 211.426 266.153C209.889 264.637 208.92 262.748 207.512 261.141C206.89 260.431 205.886 259.95 205.346 259.154C204.901 258.498 204.871 257.687 204.618 256.962C203.766 254.516 201.107 252.675 199.058 251.197C197.143 249.817 194.834 248.341 193.414 246.519C192.709 245.615 191.907 244.689 190.947 244.119C190.147 243.644 189.43 242.978 188.718 242.372C188.814 242.352 188.907 242.331 189.011 242.318C190.267 242.16 191.107 242.54 192.228 242.82C194.543 243.398 196.966 243.522 199.271 244.075C201.653 244.647 203.939 244.9 206.315 245.622C207.372 245.942 208.424 246.568 209.517 246.751C209.561 246.758 209.609 246.762 209.654 246.767C210.923 247.446 212.077 248.13 213.572 248.505C214.289 248.685 214.988 248.52 215.706 248.693C216.553 248.896 217.122 249.323 217.841 249.76C220.736 251.52 223.999 252.314 226.805 254.11C230.392 256.406 233.323 259.423 236.72 261.974C237.468 262.536 238.33 262.703 239.09 263.196C239.499 263.461 239.668 263.791 240.027 264.064C240.988 264.796 242.271 265.51 243.359 266.06C244.688 266.732 246.622 267.805 248.159 267.31C248.781 267.11 249.557 266.22 249.772 265.631C250.069 264.817 249.72 264.464 249.482 263.809C249.04 262.594 248.187 261.689 247.318 260.711C246.23 259.488 244.777 258.422 243.444 257.474C242.146 256.551 240.97 255.316 239.623 254.446C236.81 252.627 235.51 249.621 233.217 247.335C232.677 246.797 232.471 246.772 231.833 246.417C231.177 246.052 230.795 245.665 230.209 245.234C229.415 244.648 228.469 244.402 227.637 243.901C226.984 243.507 226.315 243.211 225.636 242.942C225.688 242.923 225.739 242.901 225.792 242.884C230.848 241.14 236.531 243.432 241.535 244.979C246.948 246.651 252.108 249.039 257.383 251.105C263.314 253.428 269.143 255.908 274.975 258.452C279.337 260.354 283.66 262.436 288.117 264.123C291.465 265.39 295.002 267.262 298.533 267.897C301.425 268.417 304.022 269.372 306.82 270.22C307.931 270.557 309.26 271.591 310.43 271.062L319.076 283.148H-8.28513Z" fill="#C84F3F"/>
</g>
</g>
<defs>
<clipPath id="clip0_20602_499963">
<rect width="340" height="220" rx="6" fill="white"/>
</clipPath>
<clipPath id="clip1_20602_499963">
<rect width="341" height="220" fill="white" transform="translate(-0.5)"/>
</clipPath>
</defs>
</svg>
